Exact Audio Copy V0.99 prebeta 1 from 25. May 2007

EAC 抓取日志文件从24. 十月 2010, 22:16

郭淑珍 / 20世纪中华歌坛名人百集珍藏版

使用驱动器  ：BENQ    DVD-ROM 16X   Adapter: 0  ID: 1

读取模式     : 保护
使用精确流   : 是
废除音频缓冲 : 是
使用 C2 指针 : 否

读取偏移校正                   : 738
读取 Lead-In 和 Lead-Out       : 否
用静音填充抓取中丢失偏移的采样 : 是
去除首尾静音块                 : 否
已用接口                       : 已安装外部 ASPI 接口

所用输出格式 : 内部 WAV 函数
样本格式     : 44.100 Hz;16 Bit;立体声


被抓轨 CD 的 TOC

     音轨 |   开始   |   长度   | 起始扇区 | 结尾扇区 
    --------------------------------------------------
       1  |  0:00.00 |  1:54.70 |       0  |    8619  
       2  |  1:54.70 |  7:05.37 |    8620  |   40531  
       3  |  9:00.32 |  2:28.13 |   40532  |   51644  
       4  | 11:28.45 |  1:35.02 |   51645  |   58771  
       5  | 13:03.47 |  5:41.05 |   58772  |   84351  
       6  | 18:44.52 |  4:17.65 |   84352  |  103691  
       7  | 23:02.42 |  3:43.15 |  103692  |  120431  
       8  | 26:45.57 |  2:18.15 |  120432  |  130796  
       9  | 29:03.72 |  3:10.35 |  130797  |  145081  
      10  | 32:14.32 |  1:54.43 |  145082  |  153674  
      11  | 34:09.00 |  6:41.22 |  153675  |  183771  
      12  | 40:50.22 |  2:14.68 |  183772  |  193889  
      13  | 43:05.15 |  7:33.37 |  193890  |  227901  
      14  | 50:38.52 | 13:08.33 |  227902  |  287034  


范围状态及错误

已选择范围

     文件名 E:\文件夹\20世纪中华歌坛名人百集珍藏版-郭淑珍[lwg188原创]\郭淑珍 - 20世纪中华歌坛名人百集珍藏版.wav

     峰值电平 100.0 %
     范围质量 100.0 %
     复制 CRC 9AC6E8B5
     复制成功

没有错误发生

状态报告结尾
